<svg width="194" height="31" viewBox="0 0 194 31" fill="none" xmlns="http://www.w3.org/2000/svg">
<rect x="147" y="5" width="47" height="19" rx="4" fill="#5F59F7" fill-opacity="0.7"/>
<path d="M157.33 19C160.432 19 162.271 17.081 162.271 13.8991C162.271 10.7273 160.432 8.81818 157.399 8.81818H153.879V19H157.33ZM155.724 17.4041V10.4141H157.295C159.363 10.4141 160.442 11.5675 160.442 13.8991C160.442 16.2408 159.363 17.4041 157.24 17.4041H155.724ZM167.275 19.1491C169.512 19.1491 170.934 17.5732 170.934 15.2116C170.934 12.8452 169.512 11.2642 167.275 11.2642C165.038 11.2642 163.616 12.8452 163.616 15.2116C163.616 17.5732 165.038 19.1491 167.275 19.1491ZM167.285 17.7074C166.047 17.7074 165.441 16.6037 165.441 15.2067C165.441 13.8097 166.047 12.6911 167.285 12.6911C168.503 12.6911 169.11 13.8097 169.11 15.2067C169.11 16.6037 168.503 17.7074 167.285 17.7074ZM175.793 19.1491C177.712 19.1491 178.935 18.0107 179.064 16.3899H177.344C177.19 17.2102 176.598 17.6825 175.808 17.6825C174.684 17.6825 173.958 16.7429 173.958 15.1818C173.958 13.6406 174.699 12.7159 175.808 12.7159C176.673 12.7159 177.205 13.2727 177.344 14.0085H179.064C178.94 12.353 177.647 11.2642 175.783 11.2642C173.546 11.2642 172.134 12.88 172.134 15.2116C172.134 17.5234 173.511 19.1491 175.793 19.1491ZM186.577 13.3821C186.329 12.0895 185.295 11.2642 183.505 11.2642C181.665 11.2642 180.413 12.169 180.418 13.581C180.413 14.6946 181.099 15.4304 182.565 15.7337L183.868 16.0071C184.569 16.1612 184.897 16.4446 184.897 16.8771C184.897 17.3991 184.33 17.7919 183.475 17.7919C182.65 17.7919 182.113 17.4339 181.959 16.7479L180.204 16.9169C180.428 18.3189 181.606 19.1491 183.48 19.1491C185.389 19.1491 186.737 18.1598 186.741 16.7131C186.737 15.6243 186.036 14.9581 184.594 14.6449L183.291 14.3665C182.516 14.1925 182.207 13.924 182.212 13.4815C182.207 12.9645 182.779 12.6065 183.53 12.6065C184.36 12.6065 184.798 13.0589 184.937 13.5611L186.577 13.3821Z" fill="#CFD9FE"/>
<path d="M43.8811 21.0004C41.9295 21.0004 40.4582 20.475 39.4674 19.4241C38.4865 18.3632 37.9961 16.9169 37.9961 15.0853C37.9961 13.9644 38.2163 12.9585 38.6567 12.0678C39.107 11.167 39.7726 10.4564 40.6534 9.93594C41.5341 9.4155 42.61 9.15527 43.8811 9.15527C44.4116 9.15527 44.882 9.20031 45.2923 9.29039C45.7127 9.37046 46.1631 9.51058 46.6435 9.71075V11.7975C45.7928 11.3872 44.897 11.182 43.9562 11.182C43.2556 11.182 42.6401 11.3522 42.1096 11.6924C41.5792 12.0227 41.1638 12.4831 40.8635 13.0736C40.5733 13.6641 40.4282 14.3297 40.4282 15.0703C40.4282 16.2513 40.7334 17.1972 41.344 17.9078C41.9545 18.6184 42.8002 18.9737 43.8811 18.9737C44.3716 18.9737 44.852 18.9036 45.3224 18.7635C45.8028 18.6134 46.3082 18.3982 46.8387 18.1179L47.5443 20.0846C46.9638 20.3849 46.3532 20.6101 45.7127 20.7602C45.0722 20.9203 44.4616 21.0004 43.8811 21.0004Z" fill="white"/>
<path d="M57.0915 16.4515H55.5902V20.7452H53.2032V9.36545H57.647C60.4394 9.36545 61.8356 10.5515 61.8356 12.9235C61.8356 14.665 61.0599 15.7659 59.5086 16.2263L62.316 20.7452H59.6437L57.0915 16.4515ZM55.5902 14.4248H57.647C58.828 14.4248 59.4185 13.9244 59.4185 12.9235C59.4185 12.393 59.2734 12.0077 58.9831 11.7675C58.6929 11.5173 58.2475 11.3922 57.647 11.3922H55.5902V14.4248Z" fill="white"/>
<path d="M74.9481 18.178H70.4593L69.5585 20.7452H67.1565L71.2099 9.23034H74.1825L78.251 20.7452H75.8489L74.9481 18.178ZM74.2275 16.1212L72.6962 11.7375L71.1649 16.1212H74.2275Z" fill="white"/>
<path d="M87.7672 9.36545C89.789 9.36545 91.3153 9.85087 92.3461 10.8217C93.387 11.7825 93.9075 13.1987 93.9075 15.0703C93.9075 16.9519 93.392 18.3682 92.3612 19.319C91.3303 20.2698 89.799 20.7452 87.7672 20.7452H83.8188V9.36545H87.7672ZM91.4754 15.0253C91.4754 13.7742 91.1701 12.8584 90.5596 12.2779C89.9491 11.6874 89.0183 11.3922 87.7672 11.3922H86.2059V18.7185H87.7672C89.0383 18.7185 89.9741 18.4282 90.5746 17.8477C91.1751 17.2572 91.4754 16.3164 91.4754 15.0253Z" fill="white"/>
<path d="M106.335 18.6884V20.7452H99.6545V9.36545H102.042V18.6884H106.335Z" fill="white"/>
<path d="M26.0799 22.661L13.04 30.2941V15.1074L26.0799 22.661Z" fill="url(#paint0_linear_3992_1677)"/>
<path d="M13.0398 0L0 7.55356L13.0398 15.0276L26.4772 7.55356L13.0398 0Z" fill="url(#paint1_linear_3992_1677)"/>
<path d="M13.0398 30.2939L0 22.7403V7.55371L13.0398 15.1073V30.2939Z" fill="url(#paint2_linear_3992_1677)"/>
<path opacity="0.6" d="M113.006 15.0122C113.006 15.4645 112.639 15.8311 112.187 15.8311C111.735 15.8311 111.368 15.4645 111.368 15.0122C111.368 14.56 111.735 14.1934 112.187 14.1934C112.639 14.1934 113.006 14.56 113.006 15.0122Z" fill="white"/>
<path d="M125.377 17.1873H120.573L119.237 20.7453H118.036L122.39 9.23047H123.561L127.93 20.7453H126.729L125.377 17.1873ZM124.972 16.1214L122.975 10.8218L120.979 16.1214H124.972Z" fill="white" fill-opacity="0.4"/>
<path d="M133.844 9.36558H135V20.7453H133.844V9.36558Z" fill="white" fill-opacity="0.4"/>
<defs>
<linearGradient id="paint0_linear_3992_1677" x1="19.56" y1="15.1074" x2="19.56" y2="30.2941" gradientUnits="userSpaceOnUse">
<stop stop-color="#1A167A"/>
<stop offset="1" stop-color="#4540D5"/>
</linearGradient>
<linearGradient id="paint1_linear_3992_1677" x1="7.39613" y1="-1.97446e-07" x2="21.5805" y2="16.8186" gradientUnits="userSpaceOnUse">
<stop stop-color="#C5C2FF"/>
<stop offset="1" stop-color="#918ED8"/>
</linearGradient>
<linearGradient id="paint2_linear_3992_1677" x1="12.9686" y1="14.5898" x2="1.26173e-06" y2="23.4044" gradientUnits="userSpaceOnUse">
<stop stop-color="#5F59F7"/>
<stop offset="1" stop-color="#524DD3"/>
</linearGradient>
</defs>
</svg>
