<svg width="195" height="31" viewBox="0 0 195 31" fill="none" xmlns="http://www.w3.org/2000/svg">
<rect x="147" y="5" width="48" height="19" rx="4" fill="#BBBCFE" fill-opacity="0.5"/>
<path d="M157.455 19C160.557 19 162.396 17.081 162.396 13.8991C162.396 10.7273 160.557 8.81818 157.524 8.81818H154.004V19H157.455ZM155.849 17.4041V10.4141H157.42C159.488 10.4141 160.567 11.5675 160.567 13.8991C160.567 16.2408 159.488 17.4041 157.365 17.4041H155.849ZM167.4 19.1491C169.637 19.1491 171.059 17.5732 171.059 15.2116C171.059 12.8452 169.637 11.2642 167.4 11.2642C165.163 11.2642 163.741 12.8452 163.741 15.2116C163.741 17.5732 165.163 19.1491 167.4 19.1491ZM167.41 17.7074C166.172 17.7074 165.566 16.6037 165.566 15.2067C165.566 13.8097 166.172 12.6911 167.41 12.6911C168.628 12.6911 169.235 13.8097 169.235 15.2067C169.235 16.6037 168.628 17.7074 167.41 17.7074ZM175.918 19.1491C177.837 19.1491 179.06 18.0107 179.189 16.3899H177.469C177.315 17.2102 176.723 17.6825 175.933 17.6825C174.809 17.6825 174.083 16.7429 174.083 15.1818C174.083 13.6406 174.824 12.7159 175.933 12.7159C176.798 12.7159 177.33 13.2727 177.469 14.0085H179.189C179.065 12.353 177.772 11.2642 175.908 11.2642C173.671 11.2642 172.259 12.88 172.259 15.2116C172.259 17.5234 173.636 19.1491 175.918 19.1491ZM186.702 13.3821C186.454 12.0895 185.42 11.2642 183.63 11.2642C181.79 11.2642 180.538 12.169 180.543 13.581C180.538 14.6946 181.224 15.4304 182.69 15.7337L183.993 16.0071C184.694 16.1612 185.022 16.4446 185.022 16.8771C185.022 17.3991 184.455 17.7919 183.6 17.7919C182.775 17.7919 182.238 17.4339 182.084 16.7479L180.329 16.9169C180.553 18.3189 181.731 19.1491 183.605 19.1491C185.514 19.1491 186.862 18.1598 186.866 16.7131C186.862 15.6243 186.161 14.9581 184.719 14.6449L183.416 14.3665C182.641 14.1925 182.332 13.924 182.337 13.4815C182.332 12.9645 182.904 12.6065 183.655 12.6065C184.485 12.6065 184.923 13.0589 185.062 13.5611L186.702 13.3821Z" fill="#5456F6"/>
<path d="M43.7222 20.9244C41.7775 20.9244 40.3116 20.4008 39.3243 19.3537C38.347 18.2967 37.8584 16.8556 37.8584 15.0307C37.8584 13.9138 38.0778 12.9116 38.5166 12.024C38.9653 11.1265 39.6285 10.4185 40.5061 9.89991C41.3836 9.38135 42.4557 9.12207 43.7222 9.12207C44.2507 9.12207 44.7194 9.16695 45.1283 9.2567C45.5471 9.33648 45.9959 9.47609 46.4745 9.67554V11.7548C45.6269 11.3459 44.7343 11.1415 43.7969 11.1415C43.0989 11.1415 42.4856 11.311 41.957 11.6501C41.4285 11.9792 41.0147 12.4379 40.7155 13.0263C40.4263 13.6146 40.2817 14.2778 40.2817 15.0157C40.2817 16.1925 40.5858 17.1349 41.1942 17.8429C41.8025 18.5509 42.6451 18.905 43.7222 18.905C44.2108 18.905 44.6895 18.8352 45.1582 18.6955C45.6368 18.546 46.1405 18.3316 46.669 18.0523L47.372 20.0119C46.7936 20.3111 46.1853 20.5355 45.5471 20.685C44.9089 20.8446 44.3006 20.9244 43.7222 20.9244Z" fill="black"/>
<path d="M56.8848 16.3919H55.3889V20.6701H53.0105V9.33149H57.4382C60.2205 9.33149 61.6117 10.5132 61.6117 12.8767C61.6117 14.6119 60.8388 15.7088 59.2931 16.1676L62.0903 20.6701H59.4277L56.8848 16.3919ZM55.3889 14.3725H57.4382C58.615 14.3725 59.2033 13.8739 59.2033 12.8767C59.2033 12.3481 59.0587 11.9642 58.7695 11.7249C58.4803 11.4755 58.0366 11.3509 57.4382 11.3509H55.3889V14.3725Z" fill="black"/>
<path d="M74.6768 18.1122H70.2042L69.3067 20.6701H66.9133L70.9521 9.19686H73.9139L77.9677 20.6701H75.5743L74.6768 18.1122ZM73.9588 16.0628L72.433 11.6949L70.9072 16.0628H73.9588Z" fill="black"/>
<path d="M87.4495 9.33149C89.464 9.33149 90.9847 9.81515 92.0119 10.7825C93.049 11.7398 93.5676 13.1509 93.5676 15.0157C93.5676 16.8905 93.054 18.3016 92.0269 19.249C90.9997 20.1964 89.4739 20.6701 87.4495 20.6701H83.5154V9.33149H87.4495ZM91.1443 14.9709C91.1443 13.7243 90.8401 12.8118 90.2318 12.2335C89.6235 11.6451 88.6961 11.3509 87.4495 11.3509H85.8938V18.6507H87.4495C88.716 18.6507 89.6484 18.3615 90.2468 17.7831C90.8451 17.1947 91.1443 16.2573 91.1443 14.9709Z" fill="black"/>
<path d="M105.95 18.6208V20.6701H99.2938V9.33149H101.672V18.6208H105.95Z" fill="black"/>
<path d="M25.9853 22.579L12.9927 30.1844V15.0527L25.9853 22.579Z" fill="url(#paint0_linear_3992_1647)"/>
<path d="M12.9927 0L0 7.52624L12.9927 14.9733L26.3815 7.52624L12.9927 0Z" fill="url(#paint1_linear_3992_1647)"/>
<path d="M12.9927 30.1843L0 22.6581V7.52637L12.9927 15.0526V30.1843Z" fill="url(#paint2_linear_3992_1647)"/>
<path opacity="0.6" d="M112.597 14.9585C112.597 15.4091 112.232 15.7744 111.781 15.7744C111.331 15.7744 110.965 15.4091 110.965 14.9585C110.965 14.5079 111.331 14.1426 111.781 14.1426C112.232 14.1426 112.597 14.5079 112.597 14.9585Z" fill="#0D0B23"/>
<path d="M124.925 17.1253H120.138L118.807 20.6705H117.61L121.948 9.19727H123.115L127.468 20.6705H126.271L124.925 17.1253ZM124.521 16.0632L122.531 10.7829L120.542 16.0632H124.521Z" fill="black" fill-opacity="0.4"/>
<path d="M133.36 9.33189H134.512V20.6705H133.36V9.33189Z" fill="black" fill-opacity="0.4"/>
<defs>
<linearGradient id="paint0_linear_3992_1647" x1="19.489" y1="15.0527" x2="19.489" y2="30.1844" gradientUnits="userSpaceOnUse">
<stop stop-color="#1A167A"/>
<stop offset="1" stop-color="#4540D5"/>
</linearGradient>
<linearGradient id="paint1_linear_3992_1647" x1="7.36938" y1="-1.96732e-07" x2="21.5024" y2="16.7578" gradientUnits="userSpaceOnUse">
<stop stop-color="#C5C2FF"/>
<stop offset="1" stop-color="#918ED8"/>
</linearGradient>
<linearGradient id="paint2_linear_3992_1647" x1="12.9217" y1="14.537" x2="4.94446e-07" y2="23.3197" gradientUnits="userSpaceOnUse">
<stop stop-color="#5F59F7"/>
<stop offset="1" stop-color="#524DD3"/>
</linearGradient>
</defs>
</svg>
