<svg width="495" height="111" viewBox="0 0 495 111" fill="none" xmlns="http://www.w3.org/2000/svg">
<path d="M160.76 76.935C153.61 76.935 148.22 75.01 144.59 71.16C140.997 67.2734 139.2 61.975 139.2 55.265C139.2 51.1584 140.007 47.4734 141.62 44.21C143.27 40.91 145.708 38.3067 148.935 36.4C152.162 34.4934 156.103 33.54 160.76 33.54C162.703 33.54 164.427 33.705 165.93 34.035C167.47 34.3284 169.12 34.8417 170.88 35.575V43.22C167.763 41.7167 164.482 40.965 161.035 40.965C158.468 40.965 156.213 41.5884 154.27 42.835C152.327 44.045 150.805 45.7317 149.705 47.895C148.642 50.0584 148.11 52.4967 148.11 55.21C148.11 59.5367 149.228 63.0017 151.465 65.605C153.702 68.2084 156.8 69.51 160.76 69.51C162.557 69.51 164.317 69.2534 166.04 68.74C167.8 68.19 169.652 67.4017 171.595 66.375L174.18 73.58C172.053 74.68 169.817 75.505 167.47 76.055C165.123 76.6417 162.887 76.935 160.76 76.935Z" fill="white"/>
<path d="M209.157 60.27H203.657V76H194.912V34.31H211.192C221.422 34.31 226.537 38.655 226.537 47.345C226.537 53.725 223.695 57.7584 218.012 59.445L228.297 76H218.507L209.157 60.27ZM203.657 52.845H211.192C215.518 52.845 217.682 51.0117 217.682 47.345C217.682 45.4017 217.15 43.99 216.087 43.11C215.023 42.1934 213.392 41.735 211.192 41.735H203.657V52.845Z" fill="white"/>
<path d="M274.575 66.595H258.13L254.83 76H246.03L260.88 33.815H271.77L286.675 76H277.875L274.575 66.595ZM271.935 59.06L266.325 43L260.715 59.06H271.935Z" fill="white"/>
<path d="M321.538 34.31C328.945 34.31 334.536 36.0884 338.313 39.645C342.126 43.165 344.033 48.3534 344.033 55.21C344.033 62.1034 342.145 67.2917 338.368 70.775C334.591 74.2584 328.981 76 321.538 76H307.073V34.31H321.538ZM335.123 55.045C335.123 50.4617 334.005 47.1067 331.768 44.98C329.531 42.8167 326.121 41.735 321.538 41.735H315.818V68.575H321.538C326.195 68.575 329.623 67.5117 331.823 65.385C334.023 63.2217 335.123 59.775 335.123 55.045Z" fill="white"/>
<path d="M389.562 68.465V76H365.087V34.31H373.832V68.465H389.562Z" fill="white"/>
<path d="M95.5435 83.0179L47.7717 110.982V55.3452L95.5435 83.0179Z" fill="url(#paint0_linear_3674:960)"/>
<path d="M47.7718 0L0 27.6727L47.7718 55.0541L97 27.6727L47.7718 0Z" fill="url(#paint1_linear_3674:960)"/>
<path d="M47.7718 110.982L0 83.3095V27.6729L47.7718 55.3455V110.982Z" fill="url(#paint2_linear_3674:960)"/>
<path d="M414 55C414 56.6569 412.657 58 411 58C409.343 58 408 56.6569 408 55C408 53.3431 409.343 52 411 52C412.657 52 414 53.3431 414 55Z" fill="white" fill-opacity="0.4"/>
<path d="M459.325 62.9649H441.725L436.83 75.9999H432.43L448.38 33.8149H452.67L468.675 75.9999H464.275L459.325 62.9649ZM457.84 59.0599L450.525 39.6449L443.21 59.0599H457.84Z" fill="white" fill-opacity="0.4"/>
<path d="M490.341 34.3099H494.576V75.9999H490.341V34.3099Z" fill="white" fill-opacity="0.4"/>
<defs>
<linearGradient id="paint0_linear_3674:960" x1="71.6576" y1="55.3452" x2="71.6576" y2="110.982" gradientUnits="userSpaceOnUse">
<stop stop-color="#1A167A"/>
<stop offset="1" stop-color="#4540D5"/>
</linearGradient>
<linearGradient id="paint1_linear_3674:960" x1="27.0959" y1="-7.23348e-07" x2="79.0607" y2="61.6154" gradientUnits="userSpaceOnUse">
<stop stop-color="#A8A5FE"/>
<stop offset="1" stop-color="#6967A2"/>
</linearGradient>
<linearGradient id="paint2_linear_3674:960" x1="47.5107" y1="53.4497" x2="1.20572e-06" y2="85.7421" gradientUnits="userSpaceOnUse">
<stop stop-color="#5F59F7"/>
<stop offset="1" stop-color="#524DD3"/>
</linearGradient>
</defs>
</svg>
