<svg width="346" height="109" viewBox="0 0 346 109" fill="none"
  xmlns="http://www.w3.org/2000/svg">
  <title id="cradl-logo">Cradl logo light mode</title>
  <path d="M8.69528 96.3252C2.89843 89.9156 0 81.0268 0 69.5984C0 58.3514 2.89843 49.5836 8.69528 43.2949C14.5525 37.0063 22.9459 33.8015 33.9357 33.6805C37.8607 33.6805 41.1818 33.9224 44.0198 34.4062C46.8579 34.8899 49.7563 35.7364 52.7151 36.9458V52.1837C49.6959 50.7325 46.8579 49.7045 44.2614 49.0998C41.5441 48.6765 38.6457 48.3742 35.5057 48.3742C23.127 48.4347 16.9679 55.5094 16.9679 69.4775C16.9679 83.9897 23.0063 91.2459 35.1434 91.2459C41.0006 91.2459 46.9786 89.4923 53.0774 85.9852L57.8477 99.6509C50.5413 103.884 42.5706 106 33.9357 106C22.9459 105.94 14.5525 102.674 8.69528 96.3252Z" fill="#0A0A14" />
  <path d="M105.37 34.2247V48.8579H102.592C95.9498 48.8579 89.368 51.3976 82.9673 56.4164V103.944H66.6033V35.676H82.9673V42.5088C89.2472 36.9458 95.7687 34.2247 102.592 34.2247H105.37Z" fill="#0A0A14" />
  <path d="M148.967 38.6389C153.133 41.0576 155.911 44.2624 157.3 48.3137C158.689 52.3651 159.353 57.3839 159.353 63.4911V103.339H142.989V97.1112C139.97 99.8927 137.011 101.888 134.173 103.098C131.274 104.307 128.134 104.912 124.693 104.912C117.507 104.912 111.77 102.856 107.423 98.7439C103.075 94.632 100.901 89.0085 100.901 81.8129C100.901 74.4963 103.136 68.8123 107.664 64.761C112.193 60.7096 118.352 58.7142 126.263 58.7142C132.663 58.7142 138.279 59.984 142.989 62.5237C142.929 59.4398 142.506 56.9606 141.842 55.0861C141.177 53.2116 139.789 51.7604 137.736 50.7324C135.682 49.7045 132.663 49.2207 128.738 49.2207H117.265V35.0713H130.55C138.641 35.0713 144.74 36.2806 148.967 38.6389ZM143.049 85.0177V74.2544C138.762 72.0776 134.294 70.9287 129.765 70.9287C126.202 70.9287 123.243 71.7752 121.009 73.4079C118.715 75.101 117.567 77.7615 117.567 81.5105C117.567 85.1991 118.533 87.7992 120.405 89.3713C122.338 90.9435 124.753 91.7296 127.651 91.7296C132.603 91.8505 137.736 89.5527 143.049 85.0177Z" fill="#0A0A14" />
  <path d="M234.893 0V103.339H218.529V97.9578C212.37 102.916 206.03 105.395 199.508 105.395C190.209 105.395 182.782 102.311 177.166 96.0833C171.551 89.9156 168.773 80.9059 168.773 69.1147C168.773 61.3143 170.101 54.6629 172.698 49.2812C175.294 43.8391 178.917 39.7878 183.567 37.1272C188.217 34.4666 193.53 33.0759 199.569 33.0759C206.151 33.0759 212.491 35.4946 218.59 40.3925V0H234.893ZM218.529 84.413V53.9977C213.155 49.8254 207.902 47.7695 202.648 47.7695C197.033 47.7695 192.806 49.5836 189.968 53.2721C187.13 56.9606 185.68 62.2213 185.68 69.1751C185.68 76.2499 187.13 81.6315 189.968 85.2596C192.806 88.8876 197.033 90.7017 202.648 90.7017C208.022 90.6412 213.336 88.5248 218.529 84.413Z" fill="#0A0A14" />
  <path d="M254.88 100.679C251.801 97.8973 250.231 93.5436 250.231 87.6783V0H266.595V82.2966C266.595 85.1991 267.078 87.255 268.044 88.4039C269.01 89.5528 270.761 90.097 273.297 90.097C275.833 90.097 278.068 89.8551 280 89.3714V103.521C276.196 104.428 272.693 104.851 269.493 104.851C262.851 104.912 257.96 103.521 254.88 100.679Z" fill="#0A0A14" />
  <rect x="292" y="54" width="50" height="52" rx="15" fill="#5F59F7" />
  <path d="M316.5 84.325H308.875L307.2 89H303.7L310.575 69.825H314.775L321.675 89H318.175L316.5 84.325ZM315.425 81.3L312.675 73.6L309.95 81.3H315.425ZM324.484 70.05H327.959V89H324.484V70.05Z" fill="#E6EBFF" />
</svg>
