<svg width="37" height="37" viewBox="0 0 37 37" fill="none" xmlns="http://www.w3.org/2000/svg">
<path d="M26.9837 28.5209C25.2879 28.5209 23.9004 27.1334 23.9004 25.4376C23.9004 23.7417 25.2879 22.3542 26.9837 22.3542C28.6796 22.3542 30.0671 23.7417 30.0671 25.4376C30.0671 27.1334 28.6796 28.5209 26.9837 28.5209Z" fill="#37474F"/>
<path d="M26.9797 33.1457C24.6672 33.1457 22.4318 32.0666 20.9672 30.2937L23.3568 28.3666C24.2047 29.4457 25.5922 30.1395 26.9797 30.1395C29.5234 30.1395 31.6047 28.0582 31.6047 25.5145C31.6047 22.9707 29.5234 20.8895 26.9797 20.8895C26.2089 20.8895 25.438 21.1207 24.7443 21.4291L23.4339 22.1999L17.9609 12.3332L20.6589 10.8687L24.7443 18.1145C25.5151 17.8832 26.2859 17.7291 27.0568 17.7291C31.2964 17.7291 34.7651 21.1978 34.7651 25.4374C34.7651 29.677 31.2193 33.1457 26.9797 33.1457Z" fill="#37474F"/>
<path d="M10.7962 33.1459C6.55664 33.1459 3.08789 29.6771 3.08789 25.4375C3.08789 21.8917 5.47747 18.8854 8.86914 17.9604L9.63997 20.9667C7.63581 21.5063 6.17122 23.3563 6.17122 25.4375C6.17122 27.9813 8.25247 30.0625 10.7962 30.0625C13.34 30.0625 15.4212 27.9813 15.4212 25.4375V23.8959H26.9837V26.9792H18.3504C17.6566 30.525 14.4962 33.1459 10.7962 33.1459Z" fill="#37474F"/>
<path d="M10.7962 28.5209C9.10039 28.5209 7.71289 27.1334 7.71289 25.4376C7.71289 23.7417 9.10039 22.3542 10.7962 22.3542C12.4921 22.3542 13.8796 23.7417 13.8796 25.4376C13.8796 27.1334 12.4921 28.5209 10.7962 28.5209Z" fill="#E91E63"/>
<path d="M19.2708 14.6459C17.575 14.6459 16.1875 13.2584 16.1875 11.5626C16.1875 9.86675 17.575 8.47925 19.2708 8.47925C20.9667 8.47925 22.3542 9.86675 22.3542 11.5626C22.3542 13.2584 20.9667 14.6459 19.2708 14.6459Z" fill="#37474F"/>
<path d="M12.1072 26.2084L9.48633 24.6667L14.0342 17.1897C12.4926 15.7251 11.5676 13.7209 11.5676 11.5626C11.5676 7.323 15.0363 3.85425 19.2759 3.85425C23.5155 3.85425 26.9842 7.323 26.9842 11.5626C26.9842 12.2563 26.9072 12.873 26.753 13.4897L23.7467 12.7188C23.8238 12.3334 23.9009 11.948 23.9009 11.5626C23.9009 9.01883 21.8197 6.93758 19.2759 6.93758C16.7322 6.93758 14.6509 9.01883 14.6509 11.5626C14.6509 13.1813 15.4988 14.6459 16.8863 15.4938L18.1967 16.2647L12.1072 26.2084Z" fill="#E91E63"/>
</svg>
